<svg xmlns="http://www.w3.org/2000/svg" viewBox="0 0 375 375">
  <circle cx="187.5" cy="187.5" r="167" fill="#ff5757"/>
  <path d="M136.857 87.686l48.438 0l-11.922 37.25l-48.453 0zm-20.766 14.11c-0.156 0.156-0.234 0.317-0.234 0.485c0 0 0.035-0.043 0.11-0.125c0.082-0.086 0.285-0.125 0.609-0.125c0.977-0.164 3.492-0.25 7.547-0.25l44.312 0l-45.765 140.219l-47.953 0l24.578-75.219c4.875-15.258 8.727-27.27 11.562-36.031c2.844-8.758 4.672-14.442 5.485-17.047c0.968-3.727 1.453-6.406 1.453-8.031c0-0.645-0.078-1.13-0.235-1.453c-0.167-0.813-0.656-1.462-1.468-1.953z" fill="#000"/>
  <path d="M215.71 88.905l-1.203-0.984l52.813 0l-32.125 99.078l6.078-5.344c5.032-4.383 10.426-9.094 16.187-14.125c5.77-5.031 11.977-10.469 18.625-16.313l14.125-12.656l56.485 0l-5.61 4.875c-2.917 2.273-5.757 4.586-8.515 6.938c-2.762 2.355-5.684 4.746-8.766 7.172c-15.742 12.824-31.36 25.605-46.86 38.344c-15.5 12.742-31.12 25.36-46.859 37.86l-13.64 10.953l-11.188 34.078l-47.485 0l29.954-91.531l30.421-94.453l-0.484-1.47c-0.156-0.8-0.808-1.608-1.953-2.421zm62.078 114.657c0.657-0.645 1.063-0.969 1.219-0.969c0.165 0 0.735 2.434 1.704 7.297c4.383 17.688 7.957 32.336 10.718 43.938c2.758 11.602 4.707 19.515 5.844 23.734l0.234 1.219l-51.844 0l-0.25-2.438c-0.491-3.562-1.058-8.433-1.703-14.609c-0.648-6.164-1.375-12.899-2.187-20.203c-0.168-2.915-0.25-4.864-0.25-5.844c0-0.645 0-0.969 0-0.969c0.164-0.156 1.02-0.883 2.562-2.187c1.54-1.3 3.852-3.25 6.938-5.844c8.437-7.145 14.883-12.582 19.343-16.313c4.47-3.726 7.025-6 7.672-6.812z" fill="#000"/>
</svg> 