<svg xmlns="http://www.w3.org/2000/svg" xmlns:xlink="http://www.w3.org/1999/xlink" width="500" zoomAndPan="magnify" viewBox="0 0 375 374.999991" height="500" preserveAspectRatio="xMidYMid meet" version="1.0"><defs><g/><clipPath id="3fd2d1dd38"><path d="M 20.457031 20.457031 L 354.542969 20.457031 L 354.542969 354.542969 L 20.457031 354.542969 Z M 20.457031 20.457031 " clip-rule="nonzero"/></clipPath><clipPath id="2d97eb6c72"><path d="M 187.5 20.457031 C 95.246094 20.457031 20.457031 95.246094 20.457031 187.5 C 20.457031 279.753906 95.246094 354.542969 187.5 354.542969 C 279.753906 354.542969 354.542969 279.753906 354.542969 187.5 C 354.542969 95.246094 279.753906 20.457031 187.5 20.457031 Z M 187.5 20.457031 " clip-rule="nonzero"/></clipPath></defs><g clip-path="url(#3fd2d1dd38)"><g clip-path="url(#2d97eb6c72)"><path fill="#ff5757" d="M 20.457031 20.457031 L 354.542969 20.457031 L 354.542969 354.542969 L 20.457031 354.542969 Z M 20.457031 20.457031 " fill-opacity="1" fill-rule="nonzero"/></g></g><g fill="#000000" fill-opacity="1"><g transform="translate(63.576504, 260.279975)"><g><path d="M 73.28125 -172.59375 L 121.71875 -172.59375 L 109.796875 -135.34375 L 61.34375 -135.34375 Z M 52.578125 -121.234375 C 52.421875 -121.390625 52.34375 -121.550781 52.34375 -121.71875 C 52.34375 -121.71875 52.378906 -121.675781 52.453125 -121.59375 C 52.535156 -121.507812 52.738281 -121.46875 53.0625 -121.46875 C 54.039062 -121.632812 56.554688 -121.71875 60.609375 -121.71875 L 104.921875 -121.71875 L 59.15625 18.5 L 11.203125 18.5 L 35.78125 -56.71875 C 40.65625 -71.976562 44.507812 -83.988281 47.34375 -92.75 C 50.1875 -101.507812 52.015625 -107.191406 52.828125 -109.796875 C 53.796875 -113.523438 54.28125 -116.203125 54.28125 -117.828125 C 54.28125 -118.472656 54.203125 -118.957031 54.046875 -119.28125 C 53.878906 -120.09375 53.390625 -120.742188 52.578125 -121.234375 Z M 52.578125 -121.234375 "/></g></g></g><g fill="#000000" fill-opacity="1"><g transform="translate(145.851794, 260.279975)"><g><path d="M 69.859375 -171.375 L 68.65625 -172.359375 L 121.46875 -172.359375 L 89.34375 -73.28125 L 95.421875 -78.625 C 100.453125 -83.007812 105.847656 -87.71875 111.609375 -92.75 C 117.378906 -97.78125 123.585938 -103.21875 130.234375 -109.0625 L 144.359375 -121.71875 L 200.84375 -121.71875 L 195.234375 -116.84375 C 192.316406 -114.570312 189.476562 -112.257812 186.71875 -109.90625 C 183.957031 -107.550781 181.035156 -105.160156 177.953125 -102.734375 C 162.210938 -89.910156 146.59375 -77.128906 131.09375 -64.390625 C 115.59375 -51.648438 99.972656 -39.03125 84.234375 -26.53125 L 70.59375 -15.578125 L 59.40625 18.5 L 11.921875 18.5 L 41.875 -73.03125 L 72.296875 -167.484375 L 71.8125 -168.953125 C 71.65625 -169.753906 71.003906 -170.5625 69.859375 -171.375 Z M 131.9375 -56.71875 C 132.59375 -57.363281 133 -57.6875 133.15625 -57.6875 C 133.320312 -57.6875 133.890625 -55.253906 134.859375 -50.390625 C 139.242188 -32.703125 142.816406 -18.054688 145.578125 -6.453125 C 148.335938 5.148438 150.285156 13.0625 151.421875 17.28125 L 151.65625 18.5 L 99.8125 18.5 L 99.5625 16.0625 C 99.070312 12.5 98.503906 7.628906 97.859375 1.453125 C 97.210938 -4.710938 96.484375 -11.445312 95.671875 -18.75 C 95.503906 -21.664062 95.421875 -23.613281 95.421875 -24.59375 C 95.421875 -25.238281 95.421875 -25.5625 95.421875 -25.5625 C 95.585938 -25.71875 96.441406 -26.445312 97.984375 -27.75 C 99.523438 -29.050781 101.835938 -31 104.921875 -33.59375 C 113.359375 -40.738281 119.804688 -46.175781 124.265625 -49.90625 C 128.734375 -53.632812 131.289062 -55.90625 131.9375 -56.71875 Z M 131.9375 -56.71875 "/></g></g></g></svg>